<?xml version="1.0" standalone="no"?>
<!DOCTYPE svg PUBLIC "-//W3C//DTD SVG 20010904//EN"
 "http://www.w3.org/TR/2001/REC-SVG-20010904/DTD/svg10.dtd">
<svg version="1.0" xmlns="http://www.w3.org/2000/svg"
 width="512.000000pt" height="512.000000pt" viewBox="0 0 512.000000 512.000000"
 preserveAspectRatio="xMidYMid meet">
<metadata>
Created by potrace 1.14, written by Peter Selinger 2001-2017
</metadata>
<g transform="translate(0.000000,512.000000) scale(0.100000,-0.100000)"
fill="#000000" stroke="none">
<path d="M1462 4462 l-1102 -637 0 -216 0 -216 1097 -633 c604 -348 1101 -635
1104 -636 3 -2 343 192 755 430 l749 433 0 223 0 222 -750 433 -750 433 -56
-31 c-399 -227 -1128 -654 -1126 -660 1 -4 107 -68 236 -142 l234 -135 351
203 c193 111 356 201 363 201 14 -2 883 -501 900 -518 9 -8 -101 -76 -440
-271 -248 -143 -456 -260 -463 -260 -13 0 -1604 917 -1604 925 0 4 1307 762
1540 892 l66 37 854 -494 855 -493 3 -995 2 -995 -837 -483 c-461 -265 -847
-488 -858 -495 -18 -12 -109 39 -880 484 l-860 497 -3 655 -2 655 -238 137
-237 137 -3 -926 c-2 -733 1 -930 10 -939 7 -7 420 -247 918 -535 498 -287
985 -568 1084 -625 98 -57 184 -104 190 -104 6 0 501 283 1101 629 l1090 629
0 1278 0 1277 -1080 624 c-594 343 -1087 628 -1095 633 -11 6 -320 -168 -1118
-628z"/>
<path d="M3830 2611 l-235 -137 -5 -257 -5 -257 -505 -291 c-278 -161 -510
-292 -515 -292 -6 0 -238 131 -517 292 l-508 293 -2 256 -3 255 -230 133
c-126 74 -233 134 -238 134 -4 0 -6 -239 -5 -530 l3 -531 744 -430 c410 -237
748 -431 751 -432 4 -1 345 193 758 432 l752 433 0 534 c0 294 -1 534 -2 533
-2 -1 -109 -63 -238 -138z"/>
</g>
</svg>
